<?xml version="1.0" encoding="UTF-8"?>
<svg id="Capa_2" data-name="Capa 2" xmlns="http://www.w3.org/2000/svg" viewBox="0 0 498.89 104.87">
  <defs>
    <style>
      .cls-1 {
        fill: #fff;
      }

      .cls-2 {
        fill: #152f3d;
      }

      .cls-3 {
        fill: #00ffd7;
      }
    </style>
  </defs>
  <g id="Capa_1-2" data-name="Capa 1">
    <g>
      <g>
        <path class="cls-1" d="m20.27,53.65c-.4,28.11-.2,41.86-.4,42.06-1.2.4-17.14.6-19.73.6-.4-.4.2-57.01.2-92.49,11.96.2,19.73.2,20.13.6.4.6,14.35,64.98,14.75,64.59.4-.6,14.35-55.62,14.95-56.01.2-.2,8.37-.6,13.36-.6,1.99,0,3.39,0,3.39.2.4.2.8,82.13,1,84.32-1,0-10.76,0-11.36-.4-.4-.4-.4-7.97-.2-61.2-5.58,22.72-12.36,50.83-12.56,51.43-.6.8-13.95.8-14.95.8-.4-1.79-3.19-12.56-8.57-33.89Z"/>
        <path class="cls-1" d="m98.81,102.09c-11.56,0-21.13-4.59-23.92-16.94-.8-3.79-1.2-56.21-.2-60.8,2.79-14.75,12.36-20.73,22.13-20.73,11.36,0,22.72,8.17,23.92,20.13.4,2.59,0,56.41,0,61-.4,11.36-9.97,17.34-21.93,17.34Zm-5.18-50.43c-.2,25.32-.6,27.51,2.59,30.9,1.59,1.6,3.59,2.59,5.58,2.59,1.2,0,2.19-.2,3.39-.8,4.19-2.39,3.59-6.18,3.79-27.91.2-23.92,0-28.7-.4-30.9-1-3.19-4.39-5.18-7.57-5.18-2.39,0-4.78,1.2-5.98,3.59q-1.2,2.19-1.4,27.71Z"/>
        <path class="cls-1" d="m127.72,98.5c.2-6.38-1-92.89-.4-93.89.2-.4,11.76-.8,17.14-.8,21.33,0,25.91,15.75,27.51,33.89,1.2,16.35,2.99,52.03-16.94,60-3.39,1.4-8.77,2.39-14.75,2.39-4.19,0-8.57-.6-12.56-1.59Zm23.52-76.55c-.8-.6-2.59-1.59-5.18-1.59,0,20.73.8,45.25.8,63.99,4.78-2.39,7.97-5.58,9.37-10.76,2.39-10.56,1.99-44.65-4.98-51.63Z"/>
        <path class="cls-1" d="m203.47,102.09c-11.56,0-21.13-4.59-23.92-16.94-.8-3.79-1.2-56.21-.2-60.8,2.79-14.75,12.36-20.73,22.13-20.73,11.36,0,22.72,8.17,23.92,20.13.4,2.59,0,56.41,0,61-.4,11.36-9.97,17.34-21.93,17.34Zm-5.18-50.43c-.2,25.32-.6,27.51,2.59,30.9,1.59,1.6,3.59,2.59,5.58,2.59,1.2,0,2.19-.2,3.39-.8,4.19-2.39,3.59-6.18,3.79-27.91.2-23.92,0-28.7-.4-30.9-1-3.19-4.39-5.18-7.57-5.18-2.39,0-4.78,1.2-5.98,3.59q-1.2,2.19-1.4,27.71Z"/>
        <path class="cls-1" d="m303.08,95.71c-.8,0,2.19-.2-.4-.2-.4-.4.4-91.3.8-91.69,2.39,0,4.78,0,7.18.2,11.96.4,11.96.2,12.16.8.4,1.4,12.76,66.78,12.96,65.58.4-1.2,2.79-59.2,3.19-59.6.2-.4,3.79-.4,7.38-.4s7.37,0,7.57.4c.8.4-6.98,84.32-7.18,84.72h-1.2c-3.59,0-13.75-.6-13.75-.8-.4-.2-9.37-40.86-9.77-42.06v20.73c.2,19.34.2,22.13-.6,22.13,0,0-.2-.2-.4-.2,0-.2-1-.2-2.59-.2s-3.59,0-6.18.2c-6.38.4-8.57.4-9.17.4Z"/>
        <path class="cls-1" d="m373.64,71.39v14.35c12.36.2,7.78.2,19.74.2,0,1.2.2,12.96-.2,13.16,0,0-28.31,1.2-34.88,1.2h-1.2c0,.2,1.6-95.48,1.8-95.68.6-.4,31.69-.8,35.28-.8.4,0,.6.4.6,1.4,0,2.19.6,21.73.6,22.33-.2,1-21.13.6-21.53,1,0,0-.2,3.59-.2,26.51,11.56,0,10.96,0,12.56.4.2,7.38.6,13.75.2,13.95-.4.4-12.36,1.99-12.76,1.99Z"/>
        <path class="cls-1" d="m402.15,98.3h-.6c-.2-.2.6-66.38.99-86.31,0-8.77-.2-7.57,1-7.77.2-.2,4.78-.6,10.17-.6,4.58,0,9.97.4,13.75,1.4,18.94,4.78,21.93,31.89,17.74,47.84-1.4,5.38-5.18,11.76-11.36,17.14,6.98,8.37,16.15,19.34,21.13,25.12,3.19,3.79,3.39,2.99-7.77,3.59-5.78.2-8.17.4-8.97.4s-.8,0-1-.4c-.6-.8-15.75-21.13-16.34-21.73-.6-.6,0,19.34-.4,19.73,0,.2-15.15,1.6-18.34,1.6Zm18.74-32.09c.2,0,.99-.2,1.99-.8,4.39-2.19,7.97-7.57,9.37-14.75,2.19-10.76,2.79-28.31-7.18-33.09-1.4-.6-3.99-1.59-4.39-1.59,0,0-.2,50.23.2,50.23Z"/>
        <path class="cls-1" d="m453.98,98.5c.2-6.38-1-92.89-.4-93.89.2-.4,11.76-.8,17.14-.8,21.33,0,25.91,15.75,27.51,33.89,1.2,16.35,2.99,52.03-16.94,60-3.39,1.4-8.77,2.39-14.75,2.39-4.19,0-8.57-.6-12.56-1.59Zm23.52-76.55c-.8-.6-2.59-1.59-5.18-1.59,0,20.73.8,45.25.8,63.99,4.78-2.39,7.97-5.58,9.37-10.76,2.39-10.56,1.99-44.65-4.98-51.63Z"/>
      </g>
      <g>
        <polygon class="cls-3" points="252.45 3.58 261.16 4.3 269.94 32.72 277.8 10.04 289.45 8.99 296.55 14.72 296.03 21.04 295.63 25.87 303.63 28.4 306.22 37.6 301.5 54.04 297.33 77.58 291.99 93.87 281.57 99.28 258.76 100.27 241.17 95.93 218.9 71.08 206.32 54.39 216 50.36 235.67 56.45 239.98 62.1 233.68 27.47 229.72 17.51 241.3 12.55 252.45 3.58"/>
        <path class="cls-2" d="m253.2.27c-4.16.87-8.08,4.21-9.1,7.77l-.29.96-2.16-.04c-4.95-.1-9.13,2.43-11.28,6.85-.76,1.52-.83,2.02-.91,4.86-.08,3.49.34,6.41,2.96,20.96.93,5.1,1.65,9.48,1.63,9.76-.04.45-.33.34-2.2-.69-3.16-1.79-6.01-2.61-10.28-2.97-4.93-.41-7.97.33-11.72,2.78-2.45,1.6-3.71,3.45-4.13,5.92-.33,2.15-.08,3.49,1.02,5.47.84,1.48,28.26,31.32,30.99,33.67,2.27,1.99,6.87,4.52,9.95,5.51,1.67.56,4.72,1.12,9.32,1.82,3.78.54,8.32,1.23,10.1,1.51,5.08.79,9.25.54,13.94-.85,6.26-1.85,11.93-6.07,15.35-11.34,3.35-5.2,3.73-6.86,4.94-21.55l.98-11.86,3.42-10.1c4.11-12.19,4.19-12.49,4.05-14.73-.33-4.77-4.34-9.36-8.99-10.25-.71-.12-1.35-.37-1.43-.51s.09-1.09.36-2.14c1.76-6.32-2.59-13-9.58-14.68-5.08-1.18-10.91,1.04-13.64,5.28-.66,1.02-1.68,3.59-2.88,7.21-1.04,3.1-1.99,5.82-2.09,6.04s-.81-3.34-1.54-7.92-1.61-8.88-1.91-9.58c-.69-1.52-2.74-4.01-4.16-5.03-2.81-2.01-7.16-2.88-10.71-2.13Zm6.08,6.85c2.61,1.51,2.54,1.25,5.46,19.42l2.62,16.36,1.48.29c.83.18,1.96.3,2.53.29h1.02s4.67-13.86,4.67-13.86c2.56-7.63,4.91-14.24,5.19-14.67,3.22-4.78,11.55-2.2,11.09,3.43-.06.7-2.34,7.93-5.09,16.09s-5,14.97-5.01,15.11c-.03.39,3.18,1.53,3.47,1.28.13-.13,1.46-3.89,2.95-8.34,3.56-10.65,3.56-10.68,4.82-11.65,1.28-.97,2.39-1.3,3.98-1.17,2.63.22,4.86,2.72,4.65,5.24-.04.45-1.7,5.67-3.7,11.57l-3.66,10.76-1.29,13.44c-1.29,13.02-1.36,13.49-2.16,15.17-2.99,6.33-8.37,10.62-15.2,12.15-3.52.78-5.95.64-16.73-1.02-14.64-2.29-14.93-2.45-24.09-12.35-17.61-19.07-23.62-25.69-23.87-26.3-.4-1.02.26-2.01,1.99-3,.82-.5,2.22-1.03,3.05-1.24,2.85-.67,8.25.29,11.09,1.96.57.33,3.28,2.84,6.04,5.55l5.01,4.93.72-7.56.69-7.56-1.79-11.07c-1-6.09-2.11-12.96-2.5-15.25-.38-2.29-.67-4.6-.63-5.13.21-2.16,2.22-4.25,4.57-4.7,2.54-.5,5.6,1.03,6.48,3.13.19.55,1.29,6.63,2.37,13.49,2.16,13.47,2.14,13.38,2.59,13.42.51.04,2.8-.42,3.09-.59.16-.1-.7-6.04-1.86-13.16-1.18-7.15-2.36-14.33-2.65-15.99-.6-3.69-.49-5.29.44-6.71,1.76-2.68,5.27-3.4,8.21-1.75Z"/>
        <path class="cls-2" d="m247.41,64.38c-.15,1.79.01,2,1.75,2.15.51.04,1.75.34,2.68.65,7.38,2.42,12.79,9.38,12.83,16.5l.02,1.92,1.94.16,1.94.16v-2.09c-.07-6.89-4.35-14.05-10.66-17.79-2.81-1.64-6.58-3-8.94-3.2l-1.43-.12-.14,1.65Z"/>
      </g>
    </g>
  </g>
</svg>